<svg width="439" height="94" viewBox="0 0 439 94" fill="none" xmlns="http://www.w3.org/2000/svg">
<path d="M428.973 4.5C428.973 2.01472 430.987 0 433.473 0H434.473C436.958 0 438.973 2.01472 438.973 4.5C438.973 6.98528 436.958 9 434.473 9H428.973V4.5Z" fill="#EF8F00"/>
<path d="M428.973 89.5C428.973 91.9853 430.987 94 433.473 94H434.473C436.958 94 438.973 91.9853 438.973 89.5C438.973 87.0147 436.958 85 434.473 85H428.973V89.5Z" fill="#0CCE84"/>
<path d="M10.9727 89.5C10.9727 91.9853 8.95794 94 6.47266 94H5.47266C2.98737 94 0.972656 91.9853 0.972656 89.5C0.972656 87.0147 2.98737 85 5.47266 85H10.9727V89.5Z" fill="#FF7667"/>
<path d="M11.0299 4.49963C10.9979 2.01455 8.95737 0.025949 6.4723 0.0579588C3.98722 0.0899685 1.99862 2.13047 2.03063 4.61554C2.06264 7.10062 4.10314 9.08922 6.58821 9.05721L11.0878 8.99925L11.0299 4.49963Z" fill="#AE8FF9"/>
</svg>
